<svg width="109" height="40" fill="none" xmlns="http://www.w3.org/2000/svg"><g clip-path="url(#clip0)"><circle cx="20" cy="20" r="12.5" stroke="#3DCF8E" stroke-width="15"/><path d="M53.289 7.43c.146 0 .27.007.37.02.1.013.19.04.27.08a.8.8 0 01.23.15c.073.067.156.157.25.27l6.92 8.75a17.61 17.61 0 01-.06-.81 15.11 15.11 0 01-.02-.75V7.43h2.98V22h-1.76c-.26 0-.48-.04-.66-.12-.18-.08-.354-.227-.52-.44l-6.87-8.68c.02.253.036.503.05.75.013.24.02.467.02.68V22h-2.98V7.43h1.78zm22.717 0v2.6h-5.98v3.4h4.58v2.5h-4.58v3.47h5.98V22h-9.38V7.43h9.38zm.828 0h2.84c.294 0 .537.067.73.2.2.133.33.31.39.53l2 7.6c.067.247.134.51.2.79.067.28.117.573.15.88.067-.313.14-.607.22-.88.08-.28.157-.543.23-.79l2.36-7.6a1.03 1.03 0 01.38-.5c.2-.153.44-.23.72-.23h1c.294 0 .534.067.72.2a.972.972 0 01.4.53l2.34 7.6c.074.233.15.483.23.75.08.26.15.54.21.84.054-.293.107-.573.16-.84.06-.267.12-.517.18-.75l2-7.6c.054-.193.18-.363.38-.51.2-.147.44-.22.72-.22h2.66L93.554 22h-3.06l-2.74-9.03-.15-.46a19.234 19.234 0 01-.14-.53 8.57 8.57 0 01-.15.53c-.046.167-.093.32-.14.46L84.394 22h-3.06l-4.5-14.57zm30.646 2.96c-.1.16-.207.28-.32.36a.684.684 0 01-.42.12c-.153 0-.32-.047-.5-.14-.173-.1-.373-.21-.6-.33a4.479 4.479 0 00-.76-.32c-.287-.1-.613-.15-.98-.15-.633 0-1.107.137-1.42.41-.307.267-.46.63-.46 1.09 0 .293.093.537.28.73.187.193.43.36.73.5.307.14.653.27 1.04.39.393.113.793.243 1.2.39.407.14.803.307 1.19.5.393.193.74.44 1.04.74.307.3.553.667.74 1.1.187.427.28.943.28 1.55 0 .673-.117 1.303-.35 1.89a4.433 4.433 0 01-1.02 1.54c-.44.433-.987.777-1.64 1.03-.647.247-1.383.37-2.21.37-.453 0-.917-.047-1.39-.14a8.569 8.569 0 01-1.36-.39 8.234 8.234 0 01-1.24-.61 5.263 5.263 0 01-1.01-.78l1-1.58a.878.878 0 01.74-.4c.2 0 .4.063.6.19l.69.42c.26.153.557.293.89.42.333.127.727.19 1.18.19.613 0 1.09-.133 1.43-.4.34-.273.51-.703.51-1.29 0-.34-.093-.617-.28-.83a2.153 2.153 0 00-.74-.53c-.3-.14-.643-.263-1.03-.37a37.86 37.86 0 01-1.19-.35 9.639 9.639 0 01-1.19-.48 3.97 3.97 0 01-1.04-.75c-.3-.313-.543-.7-.73-1.16-.186-.467-.28-1.04-.28-1.72a4.132 4.132 0 011.3-2.99c.427-.407.95-.73 1.57-.97.62-.247 1.33-.37 2.13-.37.447 0 .88.037 1.3.11.427.067.83.17 1.21.31.38.133.733.297 1.06.49.333.187.63.4.89.64l-.84 1.57z" fill="#fff"/><path d="M68.998 30c.83 0 1.496.261 1.995.784.5.523.749 1.227.749 2.114v4.774h-2.478v-4.06c0-.43-.117-.768-.35-1.015-.233-.247-.546-.371-.938-.371-.41.01-.749.145-1.015.406-.266.261-.422.607-.469 1.036v4.004H64v-7.574h2.492v1.232c.27-.439.618-.77 1.043-.994.425-.224.912-.336 1.463-.336zm8.162.014c.821 0 1.545.161 2.17.483a3.53 3.53 0 011.456 1.358c.345.583.518 1.258.518 2.023 0 .775-.173 1.454-.518 2.037a3.53 3.53 0 01-1.456 1.358c-.625.322-1.349.483-2.17.483s-1.545-.161-2.17-.483a3.484 3.484 0 01-1.449-1.358c-.34-.583-.511-1.262-.511-2.037 0-.765.17-1.44.511-2.023a3.484 3.484 0 011.449-1.358c.625-.322 1.349-.483 2.17-.483zm0 2.016c-.485 0-.877.173-1.176.518-.299.345-.448.798-.448 1.358 0 .57.15 1.027.448 1.372.299.345.69.518 1.176.518.495 0 .891-.173 1.19-.518.299-.345.448-.803.448-1.372 0-.56-.152-1.013-.455-1.358-.303-.345-.698-.518-1.183-.518zm4.368-1.932h2.534l1.512 5.124 1.484-5.124h2.38l1.498 5.124 1.512-5.124h2.436l-2.772 7.574h-2.464l-1.442-4.676-1.456 4.676h-2.464l-2.758-7.574z" fill="#3DCF8E"/></g><defs><clipPath id="clip0"><path fill="#fff" d="M0 0h109v40H0z"/></clipPath></defs></svg>